{
	"asset":{
		"generator":"Khronos glTF Blender I/O v3.5.30",
		"version":"2.0"
	},
	"extensionsUsed":[
		"KHR_lights_punctual",
		"KHR_materials_specular",
		"KHR_materials_ior"
	],
	"extensionsRequired":[
		"KHR_lights_punctual"
	],
	"extensions":{
		"KHR_lights_punctual":{
			"lights":[
				{
					"color":[
						1,
						1,
						1
					],
					"intensity":54351.41306588226,
					"type":"point",
					"name":"Light"
				}
			]
		}
	},
	"scene":0,
	"scenes":[
		{
			"name":"Scene",
			"nodes":[
				0,
				1,
				2
			]
		}
	],
	"nodes":[
		{
			"extensions":{
				"KHR_lights_punctual":{
					"light":0
				}
			},
			"name":"Light",
			"rotation":[
				-0.28416627645492554,
				0.7269423007965088,
				0.34203392267227173,
				0.5232754945755005
			],
			"translation":[
				4.076245307922363,
				5.903861999511719,
				-1.0054539442062378
			]
		},
		{
			"camera":0,
			"name":"Camera",
			"rotation":[
				-0.20997299253940582,
				0.3857799470424652,
				0.09062844514846802,
				0.8937962055206299
			],
			"translation":[
				7.358891487121582,
				4.958309173583984,
				6.925790786743164
			]
		},
		{
			"mesh":0,
			"name":"f47 - \u0422\u0440\u043e\u0439\u043d\u0438\u043a-\u041a 90\u00b0",
			"rotation":[
				0.7071068286895752,
				0,
				0,
				0.7071068286895752
			],
			"scale":[
				0.011325222440063953,
				0.011325222440063953,
				0.011325222440063953
			],
			"translation":[
				-0.3814205229282379,
				0,
				0
			]
		}
	],
	"cameras":[
		{
			"name":"Camera",
			"perspective":{
				"aspectRatio":1,
				"yfov":0.6911112070083618,
				"zfar":100,
				"znear":0.10000000149011612
			},
			"type":"perspective"
		}
	],
	"animations":[
		{
			"channels":[
				{
					"sampler":0,
					"target":{
						"node":2,
						"path":"translation"
					}
				},
				{
					"sampler":1,
					"target":{
						"node":2,
						"path":"rotation"
					}
				},
				{
					"sampler":2,
					"target":{
						"node":2,
						"path":"scale"
					}
				}
			],
			"name":"f47 - \u0422\u0440\u043e\u0439\u043d\u0438\u043a-\u041a 90\u00b0Action",
			"samplers":[
				{
					"input":3,
					"interpolation":"LINEAR",
					"output":4
				},
				{
					"input":3,
					"interpolation":"LINEAR",
					"output":5
				},
				{
					"input":3,
					"interpolation":"LINEAR",
					"output":6
				}
			]
		}
	],
	"materials":[
		{
			"doubleSided":true,
			"extensions":{
				"KHR_materials_specular":{
					"specularColorFactor":[
						0,
						0,
						0
					]
				},
				"KHR_materials_ior":{
					"ior":1.4500000476837158
				}
			},
			"name":"1_nerzh_mat.005",
			"pbrMetallicRoughness":{
				"baseColorFactor":[
					0.42002442479133606,
					0.42002442479133606,
					0.42002442479133606,
					1
				],
				"roughnessFactor":0.26363635063171387
			}
		}
	],
	"meshes":[
		{
			"name":"f47 - \u0422\u0440\u043e\u0439\u043d\u0438\u043a-\u041a 90\u00b0",
			"primitives":[
				{
					"attributes":{
						"POSITION":0,
						"NORMAL":1
					},
					"indices":2,
					"material":0
				}
			]
		}
	],
	"accessors":[
		{
			"bufferView":0,
			"componentType":5126,
			"count":7962,
			"max":[
				175,
				80.47498321533203,
				175
			],
			"min":[
				-80.5,
				-80.47498321533203,
				-170
			],
			"type":"VEC3"
		},
		{
			"bufferView":1,
			"componentType":5126,
			"count":7962,
			"type":"VEC3"
		},
		{
			"bufferView":2,
			"componentType":5123,
			"count":39978,
			"type":"SCALAR"
		},
		{
			"bufferView":3,
			"componentType":5126,
			"count":251,
			"max":[
				10.416666666666666
			],
			"min":[
				0
			],
			"type":"SCALAR"
		},
		{
			"bufferView":4,
			"componentType":5126,
			"count":251,
			"type":"VEC3"
		},
		{
			"bufferView":5,
			"componentType":5126,
			"count":251,
			"type":"VEC4"
		},
		{
			"bufferView":6,
			"componentType":5126,
			"count":251,
			"type":"VEC3"
		}
	],
	"bufferViews":[
		{
			"buffer":0,
			"byteLength":95544,
			"byteOffset":0,
			"target":34962
		},
		{
			"buffer":0,
			"byteLength":95544,
			"byteOffset":95544,
			"target":34962
		},
		{
			"buffer":0,
			"byteLength":79956,
			"byteOffset":191088,
			"target":34963
		},
		{
			"buffer":0,
			"byteLength":1004,
			"byteOffset":271044
		},
		{
			"buffer":0,
			"byteLength":3012,
			"byteOffset":272048
		},
		{
			"buffer":0,
			"byteLength":4016,
			"byteOffset":275060
		},
		{
			"buffer":0,
			"byteLength":3012,
			"byteOffset":279076
		}
	],
	"buffers":[
		{
			"byteLength":282088,
			"uri":"data:application/octet-stream;base64,"
		}
	]
}
